<svg width="32" height="32" viewBox="0 0 32 32" fill="none" xmlns="http://www.w3.org/2000/svg">
  <!-- Coffee cup body -->
  <path d="M6 8C6 6.89543 6.89543 6 8 6H20C21.1046 6 22 6.89543 22 8V20C22 21.1046 21.1046 22 20 22H8C6.89543 22 6 21.1046 6 20V8Z" fill="#4A5D23"/>
  
  <!-- Coffee cup handle -->
  <path d="M22 10C23.1046 10 24 10.8954 24 12V16C24 17.1046 23.1046 18 22 18V10Z" fill="#4A5D23"/>
  
  <!-- Coffee liquid -->
  <path d="M8 8H20V18C20 19.1046 19.1046 20 18 20H10C8.89543 20 8 19.1046 8 18V8Z" fill="#8B4513"/>
  
  <!-- Steam lines -->
  <path d="M10 4C10 3.44772 10.4477 3 11 3C11.5523 3 12 3.44772 12 4V6C12 6.55228 11.5523 7 11 7C10.4477 7 10 6.55228 10 6V4Z" fill="#4A5D23"/>
  <path d="M14 3C14 2.44772 14.4477 2 15 2C15.5523 2 16 2.44772 16 3V5C16 5.55228 15.5523 6 15 6C14.4477 6 14 5.55228 14 5V3Z" fill="#4A5D23"/>
  <path d="M18 4C18 3.44772 18.4477 3 19 3C19.5523 3 20 3.44772 20 4V6C20 6.55228 19.5523 7 19 7C18.4477 7 18 6.55228 18 6V4Z" fill="#4A5D23"/>
</svg>
